<?xml version="1.0" encoding="UTF-8"?>
<svg width="10px" height="10px" viewBox="0 0 10 10" version="1.1" xmlns="http://www.w3.org/2000/svg" xmlns:xlink="http://www.w3.org/1999/xlink">
    <g id="Icons" stroke="none" stroke-width="1" fill="none" fill-rule="evenodd">
        <g id="slice">
            <rect id="bound" x="0" y="0" width="10" height="10"></rect>
            <polygon id="Path" fill="rgba(255, 255, 255, 0.6)" points="0 9.00469484 0 10.0046948 2 10.0046948 2 9.00469484"></polygon>
            <polygon id="Path" fill="rgba(255, 255, 255, 0.6)" points="3 9.00469484 3 10.0046948 5 10.0046948 5 9.00469484"></polygon>
            <polygon id="Path" fill="rgba(255, 255, 255, 0.6)" points="6 9.00469484 6 10.0046948 8 10.0046948 8 9.00469484"></polygon>
            <polygon id="Path" fill="rgba(255, 255, 255, 0.6)" points="9 8.00469484 9 10.0046948 10 10.0046948 10 8.00469484"></polygon>
            <polygon id="Path" fill="rgba(255, 255, 255, 0.6)" points="9 5.00469484 9 7.00469484 10 7.00469484 10 5.00469484"></polygon>
            <polygon id="Path" fill="rgba(255, 255, 255, 0.6)" points="9 2.00469484 9 4.00469484 10 4.00469484 10 2.00469484"></polygon>
            <polygon id="Path" fill="rgba(255, 255, 255, 0.6)" points="8 0.00469483568 8 1.00469484 10 1.00469484 10 0.00469483568"></polygon>
            <polygon id="Path" fill="rgba(255, 255, 255, 0.6)" points="5 0.00469483568 5 1.00469484 7 1.00469484 7 0.00469483568"></polygon>
            <polygon id="Path" fill="rgba(255, 255, 255, 0.6)" points="2 0.00469483568 2 1.00469484 4 1.00469484 4 0.00469483568"></polygon>
            <polygon id="Path" fill="rgba(255, 255, 255, 0.6)" points="0 0.00469483568 0 2.00469484 1 2.00469484 1 0.00469483568"></polygon>
            <polygon id="Path" fill="rgba(255, 255, 255, 0.6)" points="0 3.00469484 0 5.00469484 1 5.00469484 1 3.00469484"></polygon>
            <polygon id="Path" fill="rgba(255, 255, 255, 0.6)" points="0 6.00469484 0 8.00469484 1 8.00469484 1 6.00469484"></polygon>
        </g>
    </g>
</svg>
